<svg width="355" height="23" viewBox="0 0 355 23" fill="none" xmlns="http://www.w3.org/2000/svg">
<path d="M8.1258 1.512C9.60713 1.512 10.9271 1.84933 12.0858 2.524C13.2445 3.184 14.1391 4.108 14.7698 5.296C15.4151 6.46933 15.7378 7.81133 15.7378 9.322C15.7378 10.8327 15.4151 12.182 14.7698 13.37C14.1391 14.5433 13.2445 15.4673 12.0858 16.142C10.9271 16.802 9.60713 17.132 8.1258 17.132C6.6298 17.132 5.30247 16.802 4.1438 16.142C2.98513 15.4673 2.08313 14.5433 1.4378 13.37C0.792467 12.182 0.4698 10.8327 0.4698 9.322C0.4698 7.81133 0.792467 6.46933 1.4378 5.296C2.08313 4.108 2.98513 3.184 4.1438 2.524C5.30247 1.84933 6.6298 1.512 8.1258 1.512ZM8.1258 2.392C6.7618 2.392 5.5738 2.68533 4.5618 3.272C3.5498 3.844 2.77247 4.65067 2.2298 5.692C1.68713 6.73333 1.4158 7.94333 1.4158 9.322C1.4158 10.686 1.68713 11.896 2.2298 12.952C2.77247 13.9933 3.5498 14.8073 4.5618 15.394C5.5738 15.9807 6.7618 16.274 8.1258 16.274C9.47513 16.274 10.6485 15.9807 11.6458 15.394C12.6578 14.8073 13.4351 13.9933 13.9778 12.952C14.5205 11.896 14.7918 10.686 14.7918 9.322C14.7918 7.94333 14.5205 6.73333 13.9778 5.692C13.4351 4.65067 12.6578 3.844 11.6458 3.272C10.6485 2.68533 9.47513 2.392 8.1258 2.392ZM8.0818 4.218C7.2018 4.218 6.39513 4.42333 5.6618 4.834C4.94313 5.24467 4.37113 5.83867 3.9458 6.616C3.52047 7.37867 3.3078 8.27333 3.3078 9.3C3.3078 10.3267 3.52047 11.2287 3.9458 12.006C4.37113 12.7687 4.94313 13.3627 5.6618 13.788C6.39513 14.1987 7.2018 14.404 8.0818 14.404C9.1818 14.404 10.1351 14.1107 10.9418 13.524C11.7485 12.9227 12.2985 12.1233 12.5918 11.126H10.7438C10.3038 12.3433 9.41647 12.952 8.0818 12.952C7.2018 12.952 6.48313 12.6367 5.9258 12.006C5.36847 11.3753 5.0898 10.4807 5.0898 9.322C5.0898 8.14867 5.36847 7.24667 5.9258 6.616C6.48313 5.98533 7.2018 5.67 8.0818 5.67C8.72713 5.67 9.28447 5.83133 9.7538 6.154C10.2231 6.462 10.5531 6.90933 10.7438 7.496H12.5918C12.3131 6.45467 11.7705 5.648 10.9638 5.076C10.1571 4.504 9.19647 4.218 8.0818 4.218ZM25.5629 15.394C27.4255 13.898 28.8849 12.6733 29.9409 11.72C30.9969 10.752 31.8842 9.74733 32.6029 8.706C33.3362 7.65 33.7029 6.616 33.7029 5.604C33.7029 4.65067 33.4682 3.90267 32.9989 3.36C32.5442 2.80267 31.8035 2.524 30.7769 2.524C29.7795 2.524 29.0022 2.83933 28.4449 3.47C27.9022 4.086 27.6089 4.91467 27.5649 5.956H25.6289C25.6875 4.31333 26.1862 3.04467 27.1249 2.15C28.0635 1.25533 29.2735 0.807999 30.7549 0.807999C32.2655 0.807999 33.4609 1.226 34.3409 2.062C35.2355 2.898 35.6829 4.04933 35.6829 5.516C35.6829 6.73333 35.3162 7.92133 34.5829 9.08C33.8642 10.224 33.0429 11.236 32.1189 12.116C31.1949 12.9813 30.0142 13.9933 28.5769 15.152H36.1449V16.824H25.5629V15.394ZM39.3392 8.882C39.3392 6.35933 39.7498 4.394 40.5712 2.986C41.3925 1.56333 42.8298 0.851999 44.8832 0.851999C46.9218 0.851999 48.3518 1.56333 49.1732 2.986C49.9945 4.394 50.4052 6.35933 50.4052 8.882C50.4052 11.4487 49.9945 13.4433 49.1732 14.866C48.3518 16.2887 46.9218 17 44.8832 17C42.8298 17 41.3925 16.2887 40.5712 14.866C39.7498 13.4433 39.3392 11.4487 39.3392 8.882ZM48.4252 8.882C48.4252 7.606 48.3372 6.528 48.1612 5.648C47.9998 4.75333 47.6552 4.03467 47.1272 3.492C46.6138 2.94933 45.8658 2.678 44.8832 2.678C43.8858 2.678 43.1232 2.94933 42.5952 3.492C42.0818 4.03467 41.7372 4.75333 41.5612 5.648C41.3998 6.528 41.3192 7.606 41.3192 8.882C41.3192 10.202 41.3998 11.3093 41.5612 12.204C41.7372 13.0987 42.0818 13.8173 42.5952 14.36C43.1232 14.9027 43.8858 15.174 44.8832 15.174C45.8658 15.174 46.6138 14.9027 47.1272 14.36C47.6552 13.8173 47.9998 13.0987 48.1612 12.204C48.3372 11.3093 48.4252 10.202 48.4252 8.882ZM53.7916 15.394C55.6543 13.898 57.1136 12.6733 58.1696 11.72C59.2256 10.752 60.1129 9.74733 60.8316 8.706C61.5649 7.65 61.9316 6.616 61.9316 5.604C61.9316 4.65067 61.6969 3.90267 61.2276 3.36C60.7729 2.80267 60.0323 2.524 59.0056 2.524C58.0083 2.524 57.2309 2.83933 56.6736 3.47C56.1309 4.086 55.8376 4.91467 55.7936 5.956H53.8576C53.9163 4.31333 54.4149 3.04467 55.3536 2.15C56.2923 1.25533 57.5023 0.807999 58.9836 0.807999C60.4943 0.807999 61.6896 1.226 62.5696 2.062C63.4643 2.898 63.9116 4.04933 63.9116 5.516C63.9116 6.73333 63.5449 7.92133 62.8116 9.08C62.0929 10.224 61.2716 11.236 60.3476 12.116C59.4236 12.9813 58.2429 13.9933 56.8056 15.152H64.3736V16.824H53.7916V15.394ZM67.0399 2.92V1.094H71.1759V17H69.1519V2.92H67.0399ZM81.822 9.322C81.822 7.826 82.1594 6.484 82.834 5.296C83.5087 4.09333 84.4254 3.15467 85.584 2.48C86.7574 1.80533 88.0554 1.468 89.478 1.468C91.15 1.468 92.6094 1.87133 93.856 2.678C95.1027 3.48467 96.012 4.62867 96.584 6.11H94.186C93.7607 5.186 93.1447 4.47467 92.338 3.976C91.546 3.47733 90.5927 3.228 89.478 3.228C88.4074 3.228 87.4467 3.47733 86.596 3.976C85.7454 4.47467 85.078 5.186 84.594 6.11C84.11 7.01933 83.868 8.09 83.868 9.322C83.868 10.5393 84.11 11.61 84.594 12.534C85.078 13.4433 85.7454 14.1473 86.596 14.646C87.4467 15.1447 88.4074 15.394 89.478 15.394C90.5927 15.394 91.546 15.152 92.338 14.668C93.1447 14.1693 93.7607 13.458 94.186 12.534H96.584C96.012 14.0007 95.1027 15.1373 93.856 15.944C92.6094 16.736 91.15 17.132 89.478 17.132C88.0554 17.132 86.7574 16.802 85.584 16.142C84.4254 15.4673 83.5087 14.536 82.834 13.348C82.1594 12.16 81.822 10.818 81.822 9.322ZM102.446 0.72V17H100.444V0.72H102.446ZM105.99 10.928C105.99 9.696 106.24 8.618 106.738 7.694C107.237 6.75533 107.919 6.02933 108.784 5.516C109.664 5.00267 110.64 4.746 111.71 4.746C112.766 4.746 113.683 4.97333 114.46 5.428C115.238 5.88267 115.817 6.45467 116.198 7.144V4.944H118.222V17H116.198V14.756C115.802 15.46 115.208 16.0467 114.416 16.516C113.639 16.9707 112.73 17.198 111.688 17.198C110.618 17.198 109.65 16.934 108.784 16.406C107.919 15.878 107.237 15.1373 106.738 14.184C106.24 13.2307 105.99 12.1453 105.99 10.928ZM116.198 10.95C116.198 10.0407 116.015 9.24867 115.648 8.574C115.282 7.89933 114.783 7.386 114.152 7.034C113.536 6.66733 112.854 6.484 112.106 6.484C111.358 6.484 110.676 6.66 110.06 7.012C109.444 7.364 108.953 7.87733 108.586 8.552C108.22 9.22667 108.036 10.0187 108.036 10.928C108.036 11.852 108.22 12.6587 108.586 13.348C108.953 14.0227 109.444 14.5433 110.06 14.91C110.676 15.262 111.358 15.438 112.106 15.438C112.854 15.438 113.536 15.262 114.152 14.91C114.783 14.5433 115.282 14.0227 115.648 13.348C116.015 12.6587 116.198 11.8593 116.198 10.95ZM126.753 17.198C125.829 17.198 125.001 17.044 124.267 16.736C123.534 16.4133 122.955 15.9733 122.529 15.416C122.104 14.844 121.869 14.1913 121.825 13.458H123.893C123.952 14.0593 124.231 14.5507 124.729 14.932C125.243 15.3133 125.91 15.504 126.731 15.504C127.494 15.504 128.095 15.3353 128.535 14.998C128.975 14.6607 129.195 14.2353 129.195 13.722C129.195 13.194 128.961 12.8053 128.491 12.556C128.022 12.292 127.296 12.0353 126.313 11.786C125.419 11.5513 124.685 11.3167 124.113 11.082C123.556 10.8327 123.072 10.4733 122.661 10.004C122.265 9.52 122.067 8.88933 122.067 8.112C122.067 7.496 122.251 6.93133 122.617 6.418C122.984 5.90467 123.505 5.50133 124.179 5.208C124.854 4.9 125.624 4.746 126.489 4.746C127.824 4.746 128.902 5.08333 129.723 5.758C130.545 6.43267 130.985 7.35667 131.043 8.53H129.041C128.997 7.89933 128.741 7.39333 128.271 7.012C127.817 6.63067 127.201 6.44 126.423 6.44C125.705 6.44 125.133 6.594 124.707 6.902C124.282 7.21 124.069 7.61333 124.069 8.112C124.069 8.508 124.194 8.838 124.443 9.102C124.707 9.35133 125.03 9.55667 125.411 9.718C125.807 9.86467 126.35 10.0333 127.039 10.224C127.905 10.4587 128.609 10.6933 129.151 10.928C129.694 11.148 130.156 11.4853 130.537 11.94C130.933 12.3947 131.139 12.9887 131.153 13.722C131.153 14.382 130.97 14.976 130.603 15.504C130.237 16.032 129.716 16.45 129.041 16.758C128.381 17.0513 127.619 17.198 126.753 17.198ZM139.128 17.198C138.204 17.198 137.375 17.044 136.642 16.736C135.908 16.4133 135.329 15.9733 134.904 15.416C134.478 14.844 134.244 14.1913 134.2 13.458H136.268C136.326 14.0593 136.605 14.5507 137.104 14.932C137.617 15.3133 138.284 15.504 139.106 15.504C139.868 15.504 140.47 15.3353 140.91 14.998C141.35 14.6607 141.57 14.2353 141.57 13.722C141.57 13.194 141.335 12.8053 140.866 12.556C140.396 12.292 139.67 12.0353 138.688 11.786C137.793 11.5513 137.06 11.3167 136.488 11.082C135.93 10.8327 135.446 10.4733 135.036 10.004C134.64 9.52 134.442 8.88933 134.442 8.112C134.442 7.496 134.625 6.93133 134.992 6.418C135.358 5.90467 135.879 5.50133 136.554 5.208C137.228 4.9 137.998 4.746 138.864 4.746C140.198 4.746 141.276 5.08333 142.098 5.758C142.919 6.43267 143.359 7.35667 143.418 8.53H141.416C141.372 7.89933 141.115 7.39333 140.646 7.012C140.191 6.63067 139.575 6.44 138.798 6.44C138.079 6.44 137.507 6.594 137.082 6.902C136.656 7.21 136.444 7.61333 136.444 8.112C136.444 8.508 136.568 8.838 136.818 9.102C137.082 9.35133 137.404 9.55667 137.786 9.718C138.182 9.86467 138.724 10.0333 139.414 10.224C140.279 10.4587 140.983 10.6933 141.526 10.928C142.068 11.148 142.53 11.4853 142.912 11.94C143.308 12.3947 143.513 12.9887 143.528 13.722C143.528 14.382 143.344 14.976 142.978 15.504C142.611 16.032 142.09 16.45 141.416 16.758C140.756 17.0513 139.993 17.198 139.128 17.198ZM163.417 1.666V3.294H159.237V17H157.235V3.294H153.033V1.666H163.417ZM177.761 10.51C177.761 10.8913 177.739 11.2947 177.695 11.72H168.059C168.133 12.908 168.536 13.8393 169.269 14.514C170.017 15.174 170.919 15.504 171.975 15.504C172.841 15.504 173.559 15.306 174.131 14.91C174.718 14.4993 175.129 13.9567 175.363 13.282H177.519C177.197 14.4407 176.551 15.3867 175.583 16.12C174.615 16.8387 173.413 17.198 171.975 17.198C170.831 17.198 169.805 16.9413 168.895 16.428C168.001 15.9147 167.297 15.1887 166.783 14.25C166.27 13.2967 166.013 12.1967 166.013 10.95C166.013 9.70333 166.263 8.61067 166.761 7.672C167.26 6.73333 167.957 6.01467 168.851 5.516C169.761 5.00267 170.802 4.746 171.975 4.746C173.119 4.746 174.131 4.99533 175.011 5.494C175.891 5.99267 176.566 6.682 177.035 7.562C177.519 8.42733 177.761 9.41 177.761 10.51ZM175.693 10.092C175.693 9.32933 175.525 8.67667 175.187 8.134C174.85 7.57667 174.388 7.15867 173.801 6.88C173.229 6.58667 172.591 6.44 171.887 6.44C170.875 6.44 170.01 6.76267 169.291 7.408C168.587 8.05333 168.184 8.948 168.081 10.092H175.693ZM180.536 10.95C180.536 9.70333 180.785 8.618 181.284 7.694C181.783 6.75533 182.472 6.02933 183.352 5.516C184.247 5.00267 185.266 4.746 186.41 4.746C187.891 4.746 189.109 5.10533 190.062 5.824C191.03 6.54267 191.668 7.54 191.976 8.816H189.82C189.615 8.08267 189.211 7.50333 188.61 7.078C188.023 6.65267 187.29 6.44 186.41 6.44C185.266 6.44 184.342 6.836 183.638 7.628C182.934 8.40533 182.582 9.51267 182.582 10.95C182.582 12.402 182.934 13.524 183.638 14.316C184.342 15.108 185.266 15.504 186.41 15.504C187.29 15.504 188.023 15.2987 188.61 14.888C189.197 14.4773 189.6 13.8907 189.82 13.128H191.976C191.653 14.36 191.008 15.35 190.04 16.098C189.072 16.8313 187.862 17.198 186.41 17.198C185.266 17.198 184.247 16.9413 183.352 16.428C182.472 15.9147 181.783 15.1887 181.284 14.25C180.785 13.3113 180.536 12.2113 180.536 10.95ZM201.511 4.724C202.42 4.724 203.242 4.922 203.975 5.318C204.708 5.69933 205.28 6.27867 205.691 7.056C206.116 7.83333 206.329 8.77933 206.329 9.894V17H204.349V10.18C204.349 8.97733 204.048 8.06067 203.447 7.43C202.846 6.78467 202.024 6.462 200.983 6.462C199.927 6.462 199.084 6.792 198.453 7.452C197.837 8.112 197.529 9.07267 197.529 10.334V17H195.527V0.72H197.529V6.66C197.925 6.044 198.468 5.56733 199.157 5.23C199.861 4.89267 200.646 4.724 201.511 4.724ZM216.353 4.724C217.82 4.724 219.008 5.17133 219.917 6.066C220.827 6.946 221.281 8.222 221.281 9.894V17H219.301V10.18C219.301 8.97733 219.001 8.06067 218.399 7.43C217.798 6.78467 216.977 6.462 215.935 6.462C214.879 6.462 214.036 6.792 213.405 7.452C212.789 8.112 212.481 9.07267 212.481 10.334V17H210.479V4.944H212.481V6.66C212.877 6.044 213.413 5.56733 214.087 5.23C214.777 4.89267 215.532 4.724 216.353 4.724ZM230.69 17.198C229.56 17.198 228.534 16.9413 227.61 16.428C226.7 15.9147 225.982 15.1887 225.454 14.25C224.94 13.2967 224.684 12.1967 224.684 10.95C224.684 9.718 224.948 8.63267 225.476 7.694C226.018 6.74067 226.752 6.01467 227.676 5.516C228.6 5.00267 229.634 4.746 230.778 4.746C231.922 4.746 232.956 5.00267 233.88 5.516C234.804 6.01467 235.53 6.73333 236.058 7.672C236.6 8.61067 236.872 9.70333 236.872 10.95C236.872 12.1967 236.593 13.2967 236.036 14.25C235.493 15.1887 234.752 15.9147 233.814 16.428C232.875 16.9413 231.834 17.198 230.69 17.198ZM230.69 15.438C231.408 15.438 232.083 15.2693 232.714 14.932C233.344 14.5947 233.85 14.0887 234.232 13.414C234.628 12.7393 234.826 11.918 234.826 10.95C234.826 9.982 234.635 9.16067 234.254 8.486C233.872 7.81133 233.374 7.31267 232.758 6.99C232.142 6.65267 231.474 6.484 230.756 6.484C230.022 6.484 229.348 6.65267 228.732 6.99C228.13 7.31267 227.646 7.81133 227.28 8.486C226.913 9.16067 226.73 9.982 226.73 10.95C226.73 11.9327 226.906 12.7613 227.258 13.436C227.624 14.1107 228.108 14.6167 228.71 14.954C229.311 15.2767 229.971 15.438 230.69 15.438ZM242.386 0.72V17H240.384V0.72H242.386ZM251.936 17.198C250.807 17.198 249.78 16.9413 248.856 16.428C247.947 15.9147 247.228 15.1887 246.7 14.25C246.187 13.2967 245.93 12.1967 245.93 10.95C245.93 9.718 246.194 8.63267 246.722 7.694C247.265 6.74067 247.998 6.01467 248.922 5.516C249.846 5.00267 250.88 4.746 252.024 4.746C253.168 4.746 254.202 5.00267 255.126 5.516C256.05 6.01467 256.776 6.73333 257.304 7.672C257.847 8.61067 258.118 9.70333 258.118 10.95C258.118 12.1967 257.839 13.2967 257.282 14.25C256.739 15.1887 255.999 15.9147 255.06 16.428C254.121 16.9413 253.08 17.198 251.936 17.198ZM251.936 15.438C252.655 15.438 253.329 15.2693 253.96 14.932C254.591 14.5947 255.097 14.0887 255.478 13.414C255.874 12.7393 256.072 11.918 256.072 10.95C256.072 9.982 255.881 9.16067 255.5 8.486C255.119 7.81133 254.62 7.31267 254.004 6.99C253.388 6.65267 252.721 6.484 252.002 6.484C251.269 6.484 250.594 6.65267 249.978 6.99C249.377 7.31267 248.893 7.81133 248.526 8.486C248.159 9.16067 247.976 9.982 247.976 10.95C247.976 11.9327 248.152 12.7613 248.504 13.436C248.871 14.1107 249.355 14.6167 249.956 14.954C250.557 15.2767 251.217 15.438 251.936 15.438ZM266.602 4.746C267.644 4.746 268.553 4.97333 269.33 5.428C270.122 5.88267 270.709 6.45467 271.09 7.144V4.944H273.114V17.264C273.114 18.364 272.88 19.3393 272.41 20.19C271.941 21.0553 271.266 21.73 270.386 22.214C269.521 22.698 268.509 22.94 267.35 22.94C265.766 22.94 264.446 22.566 263.39 21.818C262.334 21.07 261.711 20.0507 261.52 18.76H263.5C263.72 19.4933 264.175 20.08 264.864 20.52C265.554 20.9747 266.382 21.202 267.35 21.202C268.45 21.202 269.345 20.8573 270.034 20.168C270.738 19.4787 271.09 18.5107 271.09 17.264V14.734C270.694 15.438 270.108 16.0247 269.33 16.494C268.553 16.9633 267.644 17.198 266.602 17.198C265.532 17.198 264.556 16.934 263.676 16.406C262.811 15.878 262.129 15.1373 261.63 14.184C261.132 13.2307 260.882 12.1453 260.882 10.928C260.882 9.696 261.132 8.618 261.63 7.694C262.129 6.75533 262.811 6.02933 263.676 5.516C264.556 5.00267 265.532 4.746 266.602 4.746ZM271.09 10.95C271.09 10.0407 270.907 9.24867 270.54 8.574C270.174 7.89933 269.675 7.386 269.044 7.034C268.428 6.66733 267.746 6.484 266.998 6.484C266.25 6.484 265.568 6.66 264.952 7.012C264.336 7.364 263.845 7.87733 263.478 8.552C263.112 9.22667 262.928 10.0187 262.928 10.928C262.928 11.852 263.112 12.6587 263.478 13.348C263.845 14.0227 264.336 14.5433 264.952 14.91C265.568 15.262 266.25 15.438 266.998 15.438C267.746 15.438 268.428 15.262 269.044 14.91C269.675 14.5433 270.174 14.0227 270.54 13.348C270.907 12.6587 271.09 11.8593 271.09 10.95ZM278.411 2.986C278.03 2.986 277.707 2.854 277.443 2.59C277.179 2.326 277.047 2.00333 277.047 1.622C277.047 1.24067 277.179 0.917999 277.443 0.653999C277.707 0.389999 278.03 0.257999 278.411 0.257999C278.778 0.257999 279.086 0.389999 279.335 0.653999C279.599 0.917999 279.731 1.24067 279.731 1.622C279.731 2.00333 279.599 2.326 279.335 2.59C279.086 2.854 278.778 2.986 278.411 2.986ZM279.379 4.944V17H277.377V4.944H279.379ZM294.671 10.51C294.671 10.8913 294.649 11.2947 294.605 11.72H284.969C285.043 12.908 285.446 13.8393 286.179 14.514C286.927 15.174 287.829 15.504 288.885 15.504C289.751 15.504 290.469 15.306 291.041 14.91C291.628 14.4993 292.039 13.9567 292.273 13.282H294.429C294.107 14.4407 293.461 15.3867 292.493 16.12C291.525 16.8387 290.323 17.198 288.885 17.198C287.741 17.198 286.715 16.9413 285.805 16.428C284.911 15.9147 284.207 15.1887 283.693 14.25C283.18 13.2967 282.923 12.1967 282.923 10.95C282.923 9.70333 283.173 8.61067 283.671 7.672C284.17 6.73333 284.867 6.01467 285.761 5.516C286.671 5.00267 287.712 4.746 288.885 4.746C290.029 4.746 291.041 4.99533 291.921 5.494C292.801 5.99267 293.476 6.682 293.945 7.562C294.429 8.42733 294.671 9.41 294.671 10.51ZM292.603 10.092C292.603 9.32933 292.435 8.67667 292.097 8.134C291.76 7.57667 291.298 7.15867 290.711 6.88C290.139 6.58667 289.501 6.44 288.797 6.44C287.785 6.44 286.92 6.76267 286.201 7.408C285.497 8.05333 285.094 8.948 284.991 10.092H292.603ZM302.462 17.198C301.538 17.198 300.709 17.044 299.976 16.736C299.243 16.4133 298.663 15.9733 298.238 15.416C297.813 14.844 297.578 14.1913 297.534 13.458H299.602C299.661 14.0593 299.939 14.5507 300.438 14.932C300.951 15.3133 301.619 15.504 302.44 15.504C303.203 15.504 303.804 15.3353 304.244 14.998C304.684 14.6607 304.904 14.2353 304.904 13.722C304.904 13.194 304.669 12.8053 304.2 12.556C303.731 12.292 303.005 12.0353 302.022 11.786C301.127 11.5513 300.394 11.3167 299.822 11.082C299.265 10.8327 298.781 10.4733 298.37 10.004C297.974 9.52 297.776 8.88933 297.776 8.112C297.776 7.496 297.959 6.93133 298.326 6.418C298.693 5.90467 299.213 5.50133 299.888 5.208C300.563 4.9 301.333 4.746 302.198 4.746C303.533 4.746 304.611 5.08333 305.432 5.758C306.253 6.43267 306.693 7.35667 306.752 8.53H304.75C304.706 7.89933 304.449 7.39333 303.98 7.012C303.525 6.63067 302.909 6.44 302.132 6.44C301.413 6.44 300.841 6.594 300.416 6.902C299.991 7.21 299.778 7.61333 299.778 8.112C299.778 8.508 299.903 8.838 300.152 9.102C300.416 9.35133 300.739 9.55667 301.12 9.718C301.516 9.86467 302.059 10.0333 302.748 10.224C303.613 10.4587 304.317 10.6933 304.86 10.928C305.403 11.148 305.865 11.4853 306.246 11.94C306.642 12.3947 306.847 12.9887 306.862 13.722C306.862 14.382 306.679 14.976 306.312 15.504C305.945 16.032 305.425 16.45 304.75 16.758C304.09 17.0513 303.327 17.198 302.462 17.198ZM319.315 1.666V17H317.313V1.666H319.315ZM329.482 4.724C330.948 4.724 332.136 5.17133 333.046 6.066C333.955 6.946 334.41 8.222 334.41 9.894V17H332.43V10.18C332.43 8.97733 332.129 8.06067 331.528 7.43C330.926 6.78467 330.105 6.462 329.064 6.462C328.008 6.462 327.164 6.792 326.534 7.452C325.918 8.112 325.61 9.07267 325.61 10.334V17H323.608V4.944H325.61V6.66C326.006 6.044 326.541 5.56733 327.216 5.23C327.905 4.89267 328.66 4.724 329.482 4.724ZM337.812 10.95C337.812 9.70333 338.061 8.618 338.56 7.694C339.058 6.75533 339.748 6.02933 340.628 5.516C341.522 5.00267 342.542 4.746 343.686 4.746C345.167 4.746 346.384 5.10533 347.338 5.824C348.306 6.54267 348.944 7.54 349.252 8.816H347.096C346.89 8.08267 346.487 7.50333 345.886 7.078C345.299 6.65267 344.566 6.44 343.686 6.44C342.542 6.44 341.618 6.836 340.914 7.628C340.21 8.40533 339.858 9.51267 339.858 10.95C339.858 12.402 340.21 13.524 340.914 14.316C341.618 15.108 342.542 15.504 343.686 15.504C344.566 15.504 345.299 15.2987 345.886 14.888C346.472 14.4773 346.876 13.8907 347.096 13.128H349.252C348.929 14.36 348.284 15.35 347.316 16.098C346.348 16.8313 345.138 17.198 343.686 17.198C342.542 17.198 341.522 16.9413 340.628 16.428C339.748 15.9147 339.058 15.1887 338.56 14.25C338.061 13.3113 337.812 12.2113 337.812 10.95ZM353.441 17.132C353.06 17.132 352.737 17 352.473 16.736C352.209 16.472 352.077 16.1493 352.077 15.768C352.077 15.3867 352.209 15.064 352.473 14.8C352.737 14.536 353.06 14.404 353.441 14.404C353.808 14.404 354.116 14.536 354.365 14.8C354.629 15.064 354.761 15.3867 354.761 15.768C354.761 16.1493 354.629 16.472 354.365 16.736C354.116 17 353.808 17.132 353.441 17.132Z" fill="#B2B3CF"/>
</svg>
